<svg width="960" height="720" viewBox="0 0 960 720" fill="none" xmlns="http://www.w3.org/2000/svg">
  <rect width="960" height="720" fill="#0F1B2A"/>
  <rect width="960" height="720" fill="url(#bg)" opacity="0.96"/>
  <circle cx="772" cy="166" r="188" fill="url(#glow)" opacity="0.72"/>
  <circle cx="238" cy="604" r="210" fill="#1E3A5C" opacity="0.28"/>
  <path d="M120 512C120 484.386 142.386 462 170 462H790C817.614 462 840 484.386 840 512V560C840 587.614 817.614 610 790 610H170C142.386 610 120 587.614 120 560V512Z" fill="#11243A" stroke="#D4AF37" stroke-opacity="0.28" stroke-width="2"/>
  <path d="M190 430L322 290C341.122 269.705 373.101 268.93 393.188 288.287L438 331.462L548 214.08C567.03 193.776 598.981 192.905 619.093 212.127L772 358" stroke="#D4AF37" stroke-width="12" stroke-linecap="round" stroke-linejoin="round"/>
  <path d="M744 356H792V308" stroke="#D4AF37" stroke-width="12" stroke-linecap="round" stroke-linejoin="round"/>
  <rect x="184" y="502" width="164" height="68" rx="20" fill="#132B44"/>
  <rect x="366" y="502" width="228" height="68" rx="20" fill="#132B44"/>
  <rect x="612" y="502" width="164" height="68" rx="20" fill="#132B44"/>
  <rect x="184" y="148" width="232" height="176" rx="28" fill="#102234" stroke="#D4AF37" stroke-opacity="0.2"/>
  <rect x="446" y="196" width="328" height="176" rx="28" fill="#102234" stroke="#D4AF37" stroke-opacity="0.2"/>
  <path d="M232 234H368" stroke="#D4AF37" stroke-width="10" stroke-linecap="round"/>
  <path d="M232 268H336" stroke="#F5F1E6" stroke-opacity="0.82" stroke-width="10" stroke-linecap="round"/>
  <path d="M232 302H312" stroke="#F5F1E6" stroke-opacity="0.54" stroke-width="10" stroke-linecap="round"/>
  <path d="M494 278H680" stroke="#D4AF37" stroke-width="10" stroke-linecap="round"/>
  <path d="M494 312H726" stroke="#F5F1E6" stroke-opacity="0.82" stroke-width="10" stroke-linecap="round"/>
  <path d="M494 346H640" stroke="#F5F1E6" stroke-opacity="0.54" stroke-width="10" stroke-linecap="round"/>
  <defs>
    <linearGradient id="bg" x1="112" y1="88" x2="820" y2="664" gradientUnits="userSpaceOnUse">
      <stop stop-color="#10243A"/>
      <stop offset="1" stop-color="#18304C"/>
    </linearGradient>
    <radialGradient id="glow" cx="0" cy="0" r="1" gradientUnits="userSpaceOnUse" gradientTransform="translate(772 166) rotate(90) scale(188)">
      <stop stop-color="#D4AF37"/>
      <stop offset="1" stop-color="#D4AF37" stop-opacity="0"/>
    </radialGradient>
  </defs>
</svg>
